<svg xmlns="http://www.w3.org/2000/svg" viewBox="0 0 40 40"><path xmlns="http://www.w3.org/2000/svg" d="M39.8 32.4c0 .8-.7 1.3-1.5 1.3H29.9c-.3 0-.5-.1-.6-.4-2.3-6.6-4.7-13.2-7-19.9-.4-1-.7-2-1.1-3-.5-1.2-.6-2.3-.5-3.6 0-.9.6-1.5 1.5-1.5h5.2c.8 0 1.4.6 1.5 1.4V26c0 .1 0 .2.1.3.1.1.2.1.4.1h8.5c.4 0 .8 0 1.1.2.5.2.9.6.9 1.2-.1 1.5 0 3.1-.1 4.6zm-12.6.9c0 .1.1.2.1.5H20c-.4 0-.6-.1-.7-.5-.4-1.3-.8-2.5-1.2-3.8-.2-.7-.3-.7-1-.7H9.9c-.4 0-.6.1-.7.5-.2 1.4-.7 2.7-1.2 4-.1.3-.3.5-.7.5H.5c-.5 0-.5-.1-.3-.5 1.2-3.4 2.4-6.7 3.6-10.1C4.9 20 6 16.8 7.1 13.7c1-2.7 1.9-5.4 2.8-8 .1-.3.2-.4.5-.4H17c.3 0 .4.2.5.4.8 2.3 1.6 4.5 2.4 6.8 1.6 4.6 3.3 9.3 4.9 13.9l2.4 6.9zm-11-11.2c0-.1-.1-.2-.1-.3-.7-2.2-1.5-4.4-2.2-6.6 0-.1-.1-.3-.2-.5-.1.1-.1.2-.2.2-.7 2.4-1.5 4.8-2.2 7.1-.1.3 0 .4.3.4h4.3c.4.1.5 0 .3-.3z"/></svg>