<svg xmlns="http://www.w3.org/2000/svg" viewBox="0 0 40 40"><path d="M21.3 10c0 1.3-1.1 2.4-2.4 2.4-1.4 0-2.4-1-2.4-2.4s1-2.4 2.4-2.4c1.3 0 2.4 1.1 2.4 2.4zm15.2 28s-.1 0 0 0h-.2c-.5-.2-1-.3-1.4-.5-2-.6-4-1.2-6.1-1.7h-.5c-2.5 1.3-5.2 2-8.1 2-1.3 0-2.1-.8-1.9-2 .1-.7.8-1.3 1.5-1.3 1-.1 2.1-.2 3.1-.3 1.5-.3 2.9-.8 4.2-1.6.6-.3 1.1-.5 1.8-.2 1.4.5 2.9.9 4.4 1.3.2 0 .3.1.5.1v-.3c-.4-1.5-.9-3-1.3-4.4-.1-.2-.1-.4-.2-.6-.1-.5 0-.9.2-1.3 1.4-2.5 2-5.2 1.9-8-.2-2.7-1-5.2-2.6-7.5-.2-.2-.2-.2-.4 0-2.9 5-6.1 9.8-9.6 14.4-1 1.3-1.9 2.5-3.1 3.6-.3.2-.6.5-.9.6-.5.3-1 .2-1.4-.1-.5-.4-1-.7-1.5-1.1-.6-.4-.8-1-.7-1.7.3-1.2.9-2.2 1.5-3.3 2-3.3 4.3-6.3 6.7-9.3 1.8-2.2 3.8-4.4 5.7-6.5.1-.2.1-.3 0-.4-2.3-1.6-4.9-2.5-7.7-2.5-6.1-.1-10.7 2.7-13.5 8.2-1.5 2.8-1.8 5.8-1.3 9 .3 1.8 1 3.6 2 5.1.7 1.1.2 2-.4 2.5-.7.5-1.7.3-2.2-.4-.8-1.1-1.3-2.3-1.8-3.5-.6-1.5-.9-3.1-1-4.7 0-.1-.1-.2-.1-.3V19c0-.2.1-.3.1-.5.2-2.3.8-4.4 1.8-6.4 3-5.9 7.7-9.1 14-10 .1 0 .3-.1.4-.1h2.9c.1 0 .3.1.4.1 3.2.3 6.1 1.5 8.7 3.4.2.2.4.1.6 0 .6-.5 1.2-1.1 1.9-1.6.4-.3.9-.6 1.4-.8s.8.1.8.6c0 .3-.1.7-.2 1-.4 1.1-.9 2.1-1.3 3.2-.1.2-.1.3 0 .5 2.3 2.8 3.7 5.9 4.1 9.5.4 3.5-.2 6.8-1.8 10-.1.3-.1.5-.1.8.1.5.3 1 .4 1.4.5 1.8 1 3.6 1.5 5.3 0 .1.1.1.1.2v1c-.1.8-.6 1.2-1.3 1.4zM12.4 23.2c0 1.3-1.1 2.4-2.4 2.4s-2.4-1.1-2.4-2.4 1.1-2.4 2.4-2.4c1.3 0 2.4 1 2.4 2.4zm-.7-11.1c1.3 0 2.4 1.1 2.4 2.4s-1.1 2.4-2.4 2.4-2.4-1.1-2.4-2.4c-.1-1.3 1-2.4 2.4-2.4zM5.1 36.2c.5-.3 1-.7 1.5-1 .8-.5 1.3-1.3 1.7-2.2.6-1.6 1.8-2.6 3.5-2.9 1.4-.3 2.6.3 3.6 1.2 2.2 2.2 1 5.7-1.7 6.4l-.9.3h-2.5c-.2-.1-.3-.1-.5-.1-1.7-.2-3.3-.7-4.8-1.3l-.1-.1c0-.2.1-.3.2-.3z"/></svg>