<svg xmlns="http://www.w3.org/2000/svg" viewBox="0 0 40 40"><path d="M25.894.115c-1.526-.16-10.834-.04-11.677.03C7.038.738 2.078 4.925.522 11.712.151 13.398 0 15.688 0 19.955c0 5.592.21 7.63 1.084 10.17A13.925 13.925 0 009.83 38.87c2.54.874 4.579 1.085 10.171 1.085s7.63-.211 10.17-1.085a13.925 13.925 0 008.746-8.745c.873-2.54 1.084-4.578 1.084-10.17 0-6.587-.391-9.157-1.857-12.048-2.29-4.478-6.546-7.2-12.25-7.792zm2.871 8.263c1.356 0 2.811 1.587 2.811 2.942v17.27c0 1.385-1.556 2.941-2.941 2.941H11.496c-1.365 0-2.801-1.647-2.801-3.012 0-3.323-.321-16.064 0-17.139.442-1.475 1.446-2.52 2.861-2.961.191-.05 4.137-.09 8.765-.08.01.01 6.255.04 8.444.04z"/><path d="M11.606 17.083c-.682.683-1.245 1.316-1.245 1.376 0 .23 3.665 3.695 4.458 4.217.954.642 2.32 1.255 3.143 1.445 1.014.241 3.062.292 3.765.12 2.45-.632 3.685-1.395 6.215-3.865l1.978-1.937-1.315-1.316c-.723-.722-1.356-1.315-1.396-1.315-.05 0-.723.633-1.496 1.396-2.36 2.33-3.173 2.891-4.739 3.213-.773.17-1.044.17-1.777.01-1.456-.312-2.169-.773-4.227-2.782-1.044-1.004-1.938-1.837-2.008-1.837-.07.01-.683.572-1.356 1.275z"/></svg>