<svg xmlns="http://www.w3.org/2000/svg" viewBox="0 0 40 40"><path d="M32.6 26.5c-2.7 1.5-5.3 3-8.5 3-1.9 0-3.7-.2-5.4-1.2-2.7-1.6-4.1-4.1-4.4-7.2 0-.4-.1-.8-.1-1.2 0-.4 0-.8.1-1.2.3-3.1 1.7-5.6 4.4-7.2 1.7-1 3.5-1.2 5.4-1.2 3.2 0 5.9 1.5 8.5 3 .1 0 .2.1.3.2 1.7-2.7 3.4-5.4 5.1-8.2-1.4-1.2-2.9-2.2-4.5-2.9-4.3-2-8.7-2.8-13.4-2.5-4.8.5-9.1 1.9-12.8 5C3.4 8.1 1.4 12.3.9 17.3c-.1.9-.1 1.8-.1 2.8 0 .9 0 1.8.1 2.8.5 5 2.6 9.2 6.4 12.4 3.7 3.1 8 4.5 12.8 4.8 4.7.3 9.2-.5 13.4-2.5 1.6-.8 3.1-1.7 4.5-2.9-1.7-2.7-3.4-5.4-5.1-8.2-.2-.1-.3 0-.3 0z"/></svg>