<svg xmlns="http://www.w3.org/2000/svg" viewBox="0 0 40 40"><path xmlns="http://www.w3.org/2000/svg" d="M26.3 8.8V5.1H29v15c0 5.2.2 9.9-2.2 12.7-1.6 1.8-4.2 2.8-7.5 2.8-4.9 0-8.6-2.1-9.1-6.6h2.7c.3 4 6.4 5.5 10.1 3.6 3.1-1.6 3.4-5.8 3.3-10.3-1.4 2.4-3.3 4.4-7 4.5-4.9 0-8.2-2.7-9.3-7C8 12.4 11.4 5 18.4 4.5c4.3-.4 6.4 1.8 7.9 4.3zm-13.1 1.7c-.2.5-.5 1.2-.8 2.4-.9 4.2.3 8.4 3 10.3 2.3 1.6 5.8 1.6 8.1-.3.6-.5 1.3-1.4 1.8-2.3 1.8-3.6 1-9.1-.9-11.6-1.2-1.5-3.1-2.6-6-2.3-2.7.4-4.3 2.1-5.2 3.8z"/></svg>