<svg xmlns="http://www.w3.org/2000/svg" viewBox="0 0 40 40"><path d="M34.8 36.7h-2.7c-5.3-1.3-9.2-4.5-11.7-9.4-.6.5-.9.7-1.1.9-2.5 4.5-6.3 7.3-11.3 8.5H5.3c.2-1.6.3-3.2.6-4.7s.6-3.1 1.4-4.5c1.5-2.9 2.2-3.1 5.4-2.3.7.2 1.5.5 2.2.5.7-.1 1.4-.5 2.1-.8-.4-.5-.8-1.4-1.3-1.6-2.1-.9-4.3-1.7-6.6-2.4-3.1-.9-4.7-3-5.1-6.2-.6-3.1-1-6.3-1.5-9.4h1.4C6.8 7 10 8.4 12.4 10.6c2.3 2.2 3.8 5.2 5.6 7.9.5.8 1.4 1.9 2 1.9.8-.1 1.7-1.1 2.2-1.9 3.2-6.1 7.4-11.2 14.5-13.2h.9c-.3 2.5-.8 4.9-.9 7.4-.2 4.4-1.9 7.5-6.6 8.6-2 .5-3.9 1.3-5.7 2.2-.5.2-.7 1-1 1.6.6.3 1.1.7 1.7.7.8 0 1.6-.3 2.4-.5 3.2-.8 4.3-.7 5.5 2.4 1.1 2.8 1.2 6 1.8 9z"/></svg>