<svg xmlns="http://www.w3.org/2000/svg" viewBox="0 0 40 40"><path d="M20 7c4.2 0 4.7 0 6.3.1 1.5.1 2.3.3 3 .5.7.4 1.2.7 1.8 1.3.5.5.9 1.1 1.2 1.8.2.5.5 1.4.5 3 .2 1.6.2 2.1.2 6.3s0 4.7-.1 6.3c-.1 1.5-.3 2.3-.5 3-.3.7-.6 1.2-1.2 1.8-.5.5-1.1.9-1.8 1.2-.5.2-1.4.5-3 .5-1.7.2-2.2.2-6.4.2s-4.7 0-6.3-.1c-1.5-.1-2.3-.3-3-.5-.7-.4-1.2-.7-1.8-1.3-.5-.5-.9-1.1-1.2-1.8-.2-.5-.5-1.4-.5-3C7 24.7 7 24.2 7 20s0-4.7.1-6.3c.1-1.5.3-2.3.5-3 .4-.7.7-1.2 1.3-1.8.5-.5 1.1-.9 1.8-1.2.5-.2 1.4-.5 3-.5 1.6-.1 2.1-.2 6.3-.2zm0-2.7c-4.3 0-4.8 0-6.5.1-1.6 0-2.8.3-3.8.7-1 .4-1.9.9-2.8 1.8S5.5 8.7 5.1 9.7s-.6 2.1-.7 3.8-.1 2.2-.1 6.5 0 4.8.1 6.5c0 1.6.3 2.8.7 3.8.4 1 .9 1.9 1.8 2.8.9.9 1.7 1.4 2.8 1.8 1 .4 2.1.6 3.8.7 1.6.1 2.2.1 6.5.1s4.8 0 6.5-.1c1.6-.1 2.9-.3 3.8-.7 1-.4 1.9-.9 2.8-1.8.9-.9 1.4-1.7 1.8-2.8.4-1 .6-2.1.7-3.8.1-1.6.1-2.2.1-6.5s0-4.8-.1-6.5c-.1-1.6-.3-2.9-.7-3.8-.4-1-.9-1.9-1.8-2.8-.9-.9-1.7-1.4-2.8-1.8-1-.4-2.1-.6-3.8-.7-1.7-.1-2.2-.1-6.5-.1z"/><path d="M20 11.9c-4.5 0-8.1 3.7-8.1 8.1s3.7 8.1 8.1 8.1 8.1-3.7 8.1-8.1-3.6-8.1-8.1-8.1zm0 13.3c-2.9 0-5.2-2.3-5.2-5.2s2.3-5.2 5.2-5.2 5.2 2.3 5.2 5.2-2.3 5.2-5.2 5.2zM30.6 11.6c0 1-.8 1.9-1.9 1.9-1 0-1.9-.8-1.9-1.9s.8-1.9 1.9-1.9c1.1 0 1.9.8 1.9 1.9z"/></svg>