<svg xmlns="http://www.w3.org/2000/svg" viewBox="0 0 40 40"><path xmlns="http://www.w3.org/2000/svg" d="M30.1 22.8c-.1-.1-.3-.2-.5-.2h-1.3c-.2 0-.3.1-.5.2-.1.1-.2.3-.2.5v6.4c0 .9-.3 1.6-.9 2.3-.6.6-1.4.9-2.3.9H7.8c-.9 0-1.6-.3-2.3-.9-.6-.6-.9-1.4-.9-2.3V12.9c0-.9.3-1.6.9-2.3.6-.6 1.4-.9 2.3-.9h14.1c.2 0 .3-.1.5-.2.1-.1.2-.3.2-.5V7.8c0-.2-.1-.3-.2-.5-.1-.1-.3-.2-.5-.2H7.8c-1.6 0-3 .6-4.1 1.7S2 11.3 2 12.9v16.7c0 1.6.6 3 1.7 4.1 1.1 1.1 2.5 1.7 4.1 1.7h16.7c1.6 0 3-.6 4.1-1.7 1.1-1.1 1.7-2.5 1.7-4.1v-6.4c0-.2-.1-.3-.2-.4zM37.6 5c-.3-.3-.6-.4-.9-.4H26.4c-.3 0-.6.1-.9.4s-.4.6-.4.9.1.6.4.9l3.5 3.5-13 13.1c-.1.1-.2.3-.2.5s.1.3.2.5l2.3 2.3c.1.1.3.2.5.2s.3-.1.5-.2l13.1-13.1 3.5 3.5c.3.3.6.4.9.4.3 0 .6-.1.9-.4s.4-.6.4-.9V5.9c-.1-.4-.2-.7-.5-.9z"/></svg>