<svg xmlns="http://www.w3.org/2000/svg" viewBox="0 0 40 40"><path d="M20.4 2.7c-4.7 0-9.1.5-11.8 1.7 0 0-5.2 2.3-5.2 10.2v6.3c.2 7.7 1.4 15.4 8.6 17.3 3.3.9 6.1 1.1 8.4.9 4.1-.2 6.5-1.5 6.5-1.5l-.1-3s-3 .9-6.3.8c-3.3-.1-6.8-.4-7.3-4.4 0-.4-.1-.7-.1-1.1 0 0 3.2.8 7.3 1 2.5.1 4.8-.1 7.2-.4 4.6-.5 8.5-3.4 9-5.9.8-4.1.7-9.9.7-9.9 0-7.9-5.2-10.2-5.2-10.2-2.6-1.2-7.1-1.7-11.8-1.7h.1v-.1zm-5.2 6.2c1.9 0 3.4.7 4.4 2.2l.9 1.6.9-1.6c1-1.5 2.4-2.2 4.4-2.2 1.7 0 3 .6 4.1 1.7 1 1.2 1.5 2.7 1.5 4.7v9.6h-3.8v-9.3c0-2-.8-3-2.5-3-1.8 0-2.7 1.2-2.7 3.5v5.1h-3.8v-5.1c0-2.3-.9-3.5-2.7-3.5-1.6 0-2.5 1-2.5 3v9.3H9.6v-9.6c0-2 .5-3.5 1.5-4.7 1-1.1 2.4-1.7 4.1-1.7z"/></svg>