<svg xmlns="http://www.w3.org/2000/svg" viewBox="0 0 40 40"><path d="M24.3 40c-1.2-.5-1.9-1.4-1.8-2.6.3-3.2.6-6.5 1.2-9.7.9-4 2.5-7.8 4.9-11.1.5-.8 1.2-1.5 1.9-2.1 1.8-1.5 3.3-1.3 4.4.7v1.7c-.5 1.3-.8 2.8-1.7 3.8-1.7 2.1-3.8 3.8-5.7 5.8-.5.5-1.2 1.2-1.3 1.9-.6 2.7-1 5.3-1.4 8-.1.5 0 1 .1 1.4.1 0 .3.1.4.1.2-.5.6-.9.6-1.4.2-2.3.5-4.6.6-6.8.1-1.5.9-2.2 2.3-2 1 .2 1.9.3 2.9.4s1.3.8.7 1.6c-.4.4-1 .7-1.5.7-.9 0-1.7-.2-2.6-.3-.1 1.7-.2 3.4-.4 5.1-.3 2-.8 3.9-2.8 4.9-.3-.1-.5-.1-.8-.1zm3.4-15.9c3.1-1.7 5.6-6.3 4.7-8.7-2.4 2.5-3.4 5.6-4.7 8.7zM3 19.8c.1-4 .7-7.9 2.6-11.6C8.7 2.5 13.4-.3 20 0c3.5.2 6.5 1.6 7.8 5.1s.5 6.8-2 9.5c-2.2 2.5-5.2 3.5-8.3 3.9-.9.1-1.3.3-1.4 1.3-.3 2.4-.8 4.7-1.3 7.1-.9 4-4.3 5.4-7.8 3.1-2.5-1.7-3.4-4.3-3.8-7.1-.2-1.1-.1-2.1-.2-3.1zm13.9-4.6c2-.2 3.6-.8 4.9-2.1 1.6-1.6 2.1-4.8 1.2-6.7-1-2.2-2.9-2.7-5.1-2.8-4.5-.1-7.3 2.5-9.2 6.3-1.6 3.3-2.2 6.8-2 10.4.1 1.9.9 3.9 1.4 5.8.1.4.8.8 1.2.7.3 0 .8-.7.9-1.1.5-2.3.9-4.7 1.4-7-1.3-.4-2.9-.3-2.6-2.2.3-2.1 2-1 3.2-1.4.4-2.2.8-4.5 1.2-6.7.3-1.5 1.6-2.2 3.2-1.9 1.5.3 1.4 1.4 1.3 2.5 0 .5-.2 1-.2 1.5-.3 1.6-.6 3.1-.8 4.7z"/></svg>