<svg xmlns="http://www.w3.org/2000/svg" viewBox="0 0 40 40"><path d="M20.3 16.1c-.4-.9-1.4-3.2-2.6-5.4.9 2.2 2.1 4.6 2.6 5.4 0 .1 0 0 0 0z"/><path d="M34.3 17l-.1-.3c-.3-1.4-.6-2.9-1.1-4.2-.5-1.3-1.8-3.4-4.3-3.4h-.6c-.8.1-1.6.4-2.3.9-1-2-2.2-4-2.7-4.7-1.2-1.6-2.7-2.4-4.3-2.4-.3 0-.6 0-.9.1-.8.2-1.5.5-2.1 1.1-.8-.5-1.7-.7-2.6-.7-.6 0-1.3.1-1.9.4-1.2.5-2.1 1.7-2.5 3-.3.1-.7.2-1.1.4-1.8.9-2.8 2.9-2.5 5.1-.6.2-1.1.6-1.5 1-1.4 1.3-1.6 3.3-.6 5.8.6 1.5 1.5 3.2 2.7 5.4C9.7 31.4 13.7 36 20.7 36c5.6 0 9.7-3 11.6-5.6 3.7-5.1 2.7-10.3 2-13.4zm-4.1 12c-1.5 2.1-4.9 4.5-9.5 4.5-5.7 0-9-3.7-12.6-10.2-2.1-3.9-3.8-6.9-2.5-8.2.1-.2.3-.3.5-.4.2-.1.4-.1.6-.1.9 0 1.9.8 2.5 1.3.3.3.5.5.8.9-.9-1.5-1.7-3.2-2.1-4.5-.3-1.2 0-2.3 1-2.8.3-.1.6-.2.9-.2.7 0 1.3.3 1.7.9.2.3.5.6.7.9-.4-.9-.7-1.8-.9-2.8-.1-.9.5-1.9 1.1-2.2.3-.1.6-.2.9-.1.3 0 .6 0 .9.2.3.1.5.3.7.5.9.9 1.9 2.5 2.8 4.1-.4-1.1-.7-2.2-.8-3 0-.9.5-2 1.5-2.2h.4c1 0 1.8.8 2.3 1.4 1.2 1.6 6.1 11.1 6.1 11.1-.4-1.1-.6-2.2-.5-3.4.1-1.5.5-2.6 1.9-2.8h.2c1.8 0 2.4 2.9 2.9 5.5.6 2.7 1.7 7.2-1.5 11.6z"/><path d="M12.3 11.1c1.4 3.2 4 6.8 4 6.8s-2.1-4.1-4-6.8zM10 16.8c.8 1.4 1.7 2.7 2.7 4-1.5-2.1-2.2-3.2-2.7-4zM20.5 16.5c-.1 0-.2 0-.3-.1-.1 0-.2-.1-.2-.2-.2-.2-4.4-6.1-3.5-9.5 0-.1.1-.2.1-.2l.2-.2c.1 0 .2-.1.2-.1h.3c.1 0 .2.1.2.1l.2.2c0 .1.1.2.1.2V7c-.6 2.4 2.2 6.9 3.3 8.4.1.1.1.2.1.3 0 .1 0 .2-.1.3-.1.1-.1.2-.2.3-.2.1-.3.2-.4.2z"/><path d="M16.3 18.5c-.1 0-.2 0-.3-.1-.1 0-.2-.1-.2-.2-.2-.2-4.3-4.8-5-9.5v-.3c0-.1.1-.2.1-.2.1 0 .1 0 .2-.1.1 0 .2-.1.2-.1h.3c.1 0 .2.1.2.1l.2.2c0 .1.1.2.1.2.6 4.4 4.6 8.8 4.7 8.9.1.1.1.2.2.3v.4c-.1.1-.1.2-.2.3-.3.1-.4.1-.5.1zM13.3 22.6c-.2 0-.3-.1-.4-.2-.2-.2-5.6-5.4-5.6-10.1 0-.2.1-.3.2-.5.1-.1.3-.2.5-.2s.3.1.5.2c.1.1.2.3.2.5 0 4.2 5.1 9.1 5.2 9.2.1.1.2.2.2.3v.4c0 .1-.1.2-.2.3-.3.1-.5.1-.6.1zM23.4 26c-.2 0-.3-.1-.4-.2-.1-.1-.2-.3-.2-.4-.5-5 2.5-7.2 3.7-7.9-.3-1.2-.9-3.9.5-5.7l.2-.2c.1 0 .2-.1.2-.1h.3c.1 0 .2.1.2.1l.2.2c0 .1.1.2.1.2v.3c0 .1-.1.2-.1.2-1.1 1.4-.5 4.1-.1 5v.2c0 .1 0 .2-.1.2 0 .1-.1.1-.2.2s-.1.1-.2.1c-.2.1-3.9 1.5-3.4 6.8 0 .2 0 .3-.1.5-.2.4-.4.5-.6.5zM6.7 37.1h-.1c-1-.2-2-.5-2.9-1.1-.9-.5-1.6-1.2-2.2-2.1-.6-.8-1-1.8-1.3-2.8-.2-1-.3-2-.1-3 0-.1 0-.2.1-.2 0-.1.1-.1.2-.2s.1-.1.2-.1h.3c.1 0 .2 0 .2.1.1 0 .1.1.2.2 0 .1.1.1.1.2v.3c-.1.8-.1 1.7.1 2.6.2.8.6 1.6 1.1 2.3.4.6 1.1 1.2 1.8 1.7.7.4 1.5.7 2.4.9.2 0 .3.1.4.2.1.1.1.3.1.4 0 .2-.1.3-.2.4-.1.2-.2.2-.4.2z"/><path d="M7.1 34.4c-1.4-.2-2.6-.9-3.4-2-.8-1.1-1.1-2.4-.9-3.8 0-.2.1-.3.3-.4.1-.1.3-.1.5-.1s.3.1.4.2c.1.1.1.3.1.5-.2 1 .1 2 .7 2.8.6.8 1.5 1.4 2.5 1.5.2 0 .3.1.4.2.1.1.1.3.1.4 0 .2-.1.3-.2.4-.2.2-.3.3-.5.3zM38.9 13.9h-.2c-.1 0-.2-.1-.2-.1-.1-.1-.1-.1-.1-.2s-.1-.2-.1-.2v-.2c.3-.8.4-1.7.4-2.5 0-.9-.3-1.7-.6-2.5-.4-.8-.9-1.5-1.5-2.1-.6-.6-1.4-1-2.2-1.3-.1 0-.2-.1-.2-.1-.1-.2-.2-.2-.2-.3 0-.1-.1-.2-.1-.3v-.3c0-.1.1-.2.1-.2.1-.1.1-.1.2-.1h.3c.1 0 .2 0 .3.1 2 .7 3.5 2.1 4.4 4 .9 1.9 1 4 .3 6 0 .1-.1.2-.2.3h-.4z"/><path d="M36.3 13h-.2c-.1 0-.2-.1-.2-.1l-.2-.2c0-.1-.1-.2-.1-.2v-.2c.2-.5.2-1 .2-1.5s-.1-1-.4-1.4c-.2-.4-.5-.8-.9-1.2-.4-.3-.8-.6-1.3-.8-.2-.1-.3-.2-.4-.3-.1-.2-.1-.3 0-.5s.2-.3.3-.4c.2-.1.3-.1.5 0 .6.2 1.2.6 1.7 1s.9 1 1.2 1.6c.3.6.4 1.2.5 1.9 0 .7-.1 1.3-.3 2 0 .1-.1.2-.2.3h-.2z"/></svg>