<?xml version="1.0" encoding="utf-8"?>
<!-- Generator: Adobe Illustrator 26.3.1, SVG Export Plug-In . SVG Version: 6.00 Build 0)  -->
<svg version="1.1" id="Layer_1" xmlns="http://www.w3.org/2000/svg" xmlns:xlink="http://www.w3.org/1999/xlink" x="0px" y="0px"
	 viewBox="0 0 40 40" style="enable-background:new 0 0 40 40;" xml:space="preserve">
<path xmlns="http://www.w3.org/2000/svg" d="M39.8,32.4c0,0.8-0.7,1.3-1.5,1.3c-1.4,0-2.7,0-4.1,0c-1.4,0-2.9,0-4.3,0c-0.3,0-0.5-0.1-0.6-0.4 c-2.3-6.6-4.7-13.2-7-19.9c-0.4-1-0.7-2-1.1-3c-0.5-1.2-0.6-2.3-0.5-3.6c0-0.9,0.6-1.5,1.5-1.5c1.4,0,3.8,0,5.2,0 c0.8,0,1.4,0.6,1.5,1.4c0,0.9,0,1.9,0,2.8c0,2.3,0,4.6,0,6.9l0,9.6c0,0.1,0,0.2,0.1,0.3c0.1,0.1,0.2,0.1,0.4,0.1c1.2,0,1.4,0,2.6,0 c2,0,3.9,0,5.9,0c0.4,0,0.8,0,1.1,0.2c0.5,0.2,0.9,0.6,0.9,1.2C39.8,29.3,39.9,30.9,39.8,32.4z M27.2,33.3c0,0.1,0.1,0.2,0.1,0.5 c-0.5,0-1,0-1.5,0c-1.9,0-3.8,0-5.8,0c-0.4,0-0.6-0.1-0.7-0.5c-0.4-1.3-0.8-2.5-1.2-3.8c-0.2-0.7-0.3-0.7-1-0.7c-2.4,0-4.8,0-7.2,0 c-0.4,0-0.6,0.1-0.7,0.5C9,30.7,8.5,32,8,33.3c-0.1,0.3-0.3,0.5-0.7,0.5c-2.3,0-4.5,0-6.8,0c-0.5,0-0.5-0.1-0.3-0.5 c1.2-3.4,2.4-6.7,3.6-10.1C4.9,20,6,16.8,7.1,13.7C8.1,11,9,8.3,9.9,5.7c0.1-0.3,0.2-0.4,0.5-0.4c2.2,0,4.4,0,6.6,0 c0.3,0,0.4,0.2,0.5,0.4c0.8,2.3,1.6,4.5,2.4,6.8c1.6,4.6,3.3,9.3,4.9,13.9C25.6,28.7,26.4,31,27.2,33.3z M16.2,22.1 c0-0.1-0.1-0.2-0.1-0.3c-0.7-2.2-1.5-4.4-2.2-6.6c0-0.1-0.1-0.3-0.2-0.5c-0.1,0.1-0.1,0.2-0.2,0.2c-0.7,2.4-1.5,4.8-2.2,7.1 c-0.1,0.3,0,0.4,0.3,0.4c1.4,0,2.9,0,4.3,0C16.3,22.5,16.4,22.4,16.2,22.1z"/>
</svg>
