<?xml version="1.0" encoding="utf-8"?>
<!-- Generator: Adobe Illustrator 26.3.1, SVG Export Plug-In . SVG Version: 6.00 Build 0)  -->
<svg version="1.1" id="Layer_1" xmlns="http://www.w3.org/2000/svg" xmlns:xlink="http://www.w3.org/1999/xlink" x="0px" y="0px"
	 viewBox="0 0 40 40" style="enable-background:new 0 0 40 40;" xml:space="preserve">
<path d="M21.3,10c0,1.3-1.1,2.4-2.4,2.4c-1.4,0-2.4-1-2.4-2.4s1-2.4,2.4-2.4C20.2,7.6,21.3,8.7,21.3,10z M36.5,38
	C36.5,38,36.4,38,36.5,38c-0.1,0-0.2,0-0.2,0c-0.5-0.2-1-0.3-1.4-0.5c-2-0.6-4-1.2-6.1-1.7c-0.1,0-0.3,0-0.5,0c-2.5,1.3-5.2,2-8.1,2
	c-1.3,0-2.1-0.8-1.9-2c0.1-0.7,0.8-1.3,1.5-1.3c1-0.1,2.1-0.2,3.1-0.3c1.5-0.3,2.9-0.8,4.2-1.6c0.6-0.3,1.1-0.5,1.8-0.2
	c1.4,0.5,2.9,0.9,4.4,1.3c0.2,0,0.3,0.1,0.5,0.1c0-0.1,0-0.2,0-0.3c-0.4-1.5-0.9-3-1.3-4.4c-0.1-0.2-0.1-0.4-0.2-0.6
	c-0.1-0.5,0-0.9,0.2-1.3c1.4-2.5,2-5.2,1.9-8c-0.2-2.7-1-5.2-2.6-7.5c-0.2-0.2-0.2-0.2-0.4,0c-2.9,5-6.1,9.8-9.6,14.4
	c-1,1.3-1.9,2.5-3.1,3.6c-0.3,0.2-0.6,0.5-0.9,0.6c-0.5,0.3-1,0.2-1.4-0.1c-0.5-0.4-1-0.7-1.5-1.1c-0.6-0.4-0.8-1-0.7-1.7
	c0.3-1.2,0.9-2.2,1.5-3.3c2-3.3,4.3-6.3,6.7-9.3c1.8-2.2,3.8-4.4,5.7-6.5c0.1-0.2,0.1-0.3,0-0.4c-2.3-1.6-4.9-2.5-7.7-2.5
	C14.3,5.3,9.7,8.1,6.9,13.6c-1.5,2.8-1.8,5.8-1.3,9c0.3,1.8,1,3.6,2,5.1c0.7,1.1,0.2,2-0.4,2.5c-0.7,0.5-1.7,0.3-2.2-0.4
	c-0.8-1.1-1.3-2.3-1.8-3.5c-0.6-1.5-0.9-3.1-1-4.7c0-0.1-0.1-0.2-0.1-0.3c0-0.8,0-1.6,0-2.3c0-0.2,0.1-0.3,0.1-0.5
	C2.4,16.2,3,14.1,4,12.1c3-5.9,7.7-9.1,14-10c0.1,0,0.3-0.1,0.4-0.1c1,0,2,0,2.9,0c0.1,0,0.3,0.1,0.4,0.1c3.2,0.3,6.1,1.5,8.7,3.4
	c0.2,0.2,0.4,0.1,0.6,0c0.6-0.5,1.2-1.1,1.9-1.6c0.4-0.3,0.9-0.6,1.4-0.8s0.8,0.1,0.8,0.6c0,0.3-0.1,0.7-0.2,1
	c-0.4,1.1-0.9,2.1-1.3,3.2c-0.1,0.2-0.1,0.3,0,0.5c2.3,2.8,3.7,5.9,4.1,9.5c0.4,3.5-0.2,6.8-1.8,10c-0.1,0.3-0.1,0.5-0.1,0.8
	c0.1,0.5,0.3,1,0.4,1.4c0.5,1.8,1,3.6,1.5,5.3c0,0.1,0.1,0.1,0.1,0.2c0,0.3,0,0.7,0,1C37.7,37.4,37.2,37.8,36.5,38z M12.4,23.2
	c0,1.3-1.1,2.4-2.4,2.4s-2.4-1.1-2.4-2.4s1.1-2.4,2.4-2.4C11.3,20.8,12.4,21.8,12.4,23.2z M11.7,12.1c1.3,0,2.4,1.1,2.4,2.4
	s-1.1,2.4-2.4,2.4s-2.4-1.1-2.4-2.4C9.2,13.2,10.3,12.1,11.7,12.1z M5.1,36.2c0.5-0.3,1-0.7,1.5-1c0.8-0.5,1.3-1.3,1.7-2.2
	c0.6-1.6,1.8-2.6,3.5-2.9c1.4-0.3,2.6,0.3,3.6,1.2c2.2,2.2,1,5.7-1.7,6.4c-0.3,0.1-0.6,0.2-0.9,0.3c-0.8,0-1.7,0-2.5,0
	c-0.2-0.1-0.3-0.1-0.5-0.1c-1.7-0.2-3.3-0.7-4.8-1.3c0,0,0,0-0.1-0.1C4.9,36.3,5,36.2,5.1,36.2z"/>
</svg>
