<?xml version="1.0" encoding="utf-8"?>
<!-- Generator: Adobe Illustrator 27.8.1, SVG Export Plug-In . SVG Version: 6.00 Build 0)  -->
<svg version="1.1" id="Layer_1" xmlns="http://www.w3.org/2000/svg" xmlns:xlink="http://www.w3.org/1999/xlink" x="0px" y="0px"
	 viewBox="0 0 40 40" style="enable-background:new 0 0 40 40;" xml:space="preserve">
<path d="M20,18C18.2,14.5,13.3,7.9,8.7,4.7C4.3,1.6,2.6,2.1,1.5,2.6C0.2,3.2,0,5.1,0,6.3c0,1.1,0.6,9.4,1,10.8
	c1.4,4.6,6.2,6.1,10.6,5.6c0.2,0,0.5-0.1,0.7-0.1c-0.2,0-0.5,0.1-0.7,0.1C5.2,23.6-0.6,26,7,34.5c8.4,8.7,11.4-1.9,13-7.2
	c1.6,5.3,3.4,15.5,12.9,7.2c7.1-7.2,2-10.8-4.6-11.8c-0.2,0-0.5-0.1-0.7-0.1c0.2,0,0.5,0.1,0.7,0.1c4.4,0.5,9.3-1,10.6-5.6
	c0.4-1.4,1-9.6,1-10.8c0-1.1-0.2-3.1-1.5-3.7c-1.1-0.5-2.8-1-7.2,2.1C26.7,7.9,21.8,14.5,20,18z"/>
</svg>
