<?xml version="1.0" encoding="utf-8"?>
<!-- Generator: Adobe Illustrator 28.0.0, SVG Export Plug-In . SVG Version: 6.00 Build 0)  -->
<svg version="1.1" id="Layer_1" xmlns="http://www.w3.org/2000/svg" xmlns:xlink="http://www.w3.org/1999/xlink" x="0px" y="0px"
	 viewBox="0 0 40 40" style="enable-background:new 0 0 40 40;" xml:space="preserve">
<g transform="matrix(.100402 0 0 -.100402 -.60241 299.996)">
	<path d="M263.9,2986.8c-15.2,1.6-107.9,0.4-116.3-0.3c-71.5-5.9-120.9-47.6-136.4-115.2c-3.7-16.8-5.2-39.6-5.2-82.1
		c0-55.7,2.1-76,10.8-101.3c14-41.2,45.9-73.1,87.1-87.1c25.3-8.7,45.6-10.8,101.3-10.8s76,2.1,101.3,10.8
		c41.2,14,73.1,45.9,87.1,87.1c8.7,25.3,10.8,45.6,10.8,101.3c0,65.6-3.9,91.2-18.5,120C363.1,2953.8,320.7,2980.9,263.9,2986.8z
		 M292.5,2904.5c13.5,0,28-15.8,28-29.3v-172c0-13.8-15.5-29.3-29.3-29.3H120.5c-13.6,0-27.9,16.4-27.9,30c0,33.1-3.2,160,0,170.7
		c4.4,14.7,14.4,25.1,28.5,29.5c1.9,0.5,41.2,0.9,87.3,0.8C208.5,2904.8,270.7,2904.5,292.5,2904.5z"/>
	<path d="M121.6,2817.8c-6.8-6.8-12.4-13.1-12.4-13.7c0-2.3,36.5-36.8,44.4-42c9.5-6.4,23.1-12.5,31.3-14.4
		c10.1-2.4,30.5-2.9,37.5-1.2c24.4,6.3,36.7,13.9,61.9,38.5l19.7,19.3l-13.1,13.1c-7.2,7.2-13.5,13.1-13.9,13.1
		c-0.5,0-7.2-6.3-14.9-13.9c-23.5-23.2-31.6-28.8-47.2-32c-7.7-1.7-10.4-1.7-17.7-0.1c-14.5,3.1-21.6,7.7-42.1,27.7
		c-10.4,10-19.3,18.3-20,18.3C134.4,2830.4,128.3,2824.8,121.6,2817.8z"/>
</g>
</svg>
