<?xml version="1.0" encoding="utf-8"?>
<!-- Generator: Adobe Illustrator 28.0.0, SVG Export Plug-In . SVG Version: 6.00 Build 0)  -->
<svg version="1.1" id="Layer_1" xmlns="http://www.w3.org/2000/svg" xmlns:xlink="http://www.w3.org/1999/xlink" x="0px" y="0px"
	 viewBox="0 0 40 40" style="enable-background:new 0 0 40 40;" xml:space="preserve">
<path d="M32.6,26.5c-2.7,1.5-5.3,3-8.5,3c-1.9,0-3.7-0.2-5.4-1.2c-2.7-1.6-4.1-4.1-4.4-7.2c0-0.4-0.1-0.8-0.1-1.2
	c0-0.4,0-0.8,0.1-1.2c0.3-3.1,1.7-5.6,4.4-7.2c1.7-1,3.5-1.2,5.4-1.2c3.2,0,5.9,1.5,8.5,3c0.1,0,0.2,0.1,0.3,0.2
	c1.7-2.7,3.4-5.4,5.1-8.2c-1.4-1.2-2.9-2.2-4.5-2.9c-4.3-2-8.7-2.8-13.4-2.5c-4.8,0.5-9.1,1.9-12.8,5c-3.9,3.2-5.9,7.4-6.4,12.4
	c-0.1,0.9-0.1,1.8-0.1,2.8c0,0.9,0,1.8,0.1,2.8c0.5,5,2.6,9.2,6.4,12.4c3.7,3.1,8,4.5,12.8,4.8c4.7,0.3,9.2-0.5,13.4-2.5
	c1.6-0.8,3.1-1.7,4.5-2.9c-1.7-2.7-3.4-5.4-5.1-8.2C32.7,26.4,32.6,26.5,32.6,26.5z"/>
</svg>
