<?xml version="1.0" encoding="utf-8"?>
<!-- Generator: Adobe Illustrator 26.3.1, SVG Export Plug-In . SVG Version: 6.00 Build 0)  -->
<svg version="1.1" id="Layer_1" xmlns="http://www.w3.org/2000/svg" xmlns:xlink="http://www.w3.org/1999/xlink" x="0px" y="0px"
	 viewBox="0 0 40 40" style="enable-background:new 0 0 40 40;" xml:space="preserve">
<path xmlns="http://www.w3.org/2000/svg" d="M26.3,8.8c0-1.2,0-2.5,0-3.7c0.9,0,1.8,0,2.7,0c0,4.7,0,10.1,0,15c0,5.2,0.2,9.9-2.2,12.7c-1.6,1.8-4.2,2.8-7.5,2.8 c-4.9,0-8.6-2.1-9.1-6.6c0.9,0,1.8,0,2.7,0c0.3,4,6.4,5.5,10.1,3.6c3.1-1.6,3.4-5.8,3.3-10.3c-1.4,2.4-3.3,4.4-7,4.5 c-4.9,0-8.2-2.7-9.3-7C8,12.4,11.4,5,18.4,4.5C22.7,4.1,24.8,6.3,26.3,8.8L26.3,8.8z M13.2,10.5c-0.2,0.5-0.5,1.2-0.8,2.4 c-0.9,4.2,0.3,8.4,3,10.3c2.3,1.6,5.8,1.6,8.1-0.3c0.6-0.5,1.3-1.4,1.8-2.3c1.8-3.6,1-9.1-0.9-11.6c-1.2-1.5-3.1-2.6-6-2.3 C15.7,7.1,14.1,8.8,13.2,10.5z"/>
</svg>
