<?xml version="1.0" encoding="utf-8"?>
<!-- Generator: Adobe Illustrator 26.3.1, SVG Export Plug-In . SVG Version: 6.00 Build 0)  -->
<svg version="1.1" id="Layer_1" xmlns="http://www.w3.org/2000/svg" xmlns:xlink="http://www.w3.org/1999/xlink" x="0px" y="0px"
	 viewBox="0 0 40 40" style="enable-background:new 0 0 40 40;" xml:space="preserve">
<path d="M34.8,36.7c-0.9,0-1.8,0-2.7,0c-5.3-1.3-9.2-4.5-11.7-9.4c-0.6,0.5-0.9,0.7-1.1,0.9C16.8,32.7,13,35.5,8,36.7
	c-0.9,0-1.8,0-2.7,0c0.2-1.6,0.3-3.2,0.6-4.7c0.3-1.5,0.6-3.1,1.4-4.5c1.5-2.9,2.2-3.1,5.4-2.3c0.7,0.2,1.5,0.5,2.2,0.5
	c0.7-0.1,1.4-0.5,2.1-0.8c-0.4-0.5-0.8-1.4-1.3-1.6c-2.1-0.9-4.3-1.7-6.6-2.4C6,20,4.4,17.9,4,14.7c-0.6-3.1-1-6.3-1.5-9.4
	c0.5,0,0.9,0,1.4,0C6.8,7,10,8.4,12.4,10.6c2.3,2.2,3.8,5.2,5.6,7.9c0.5,0.8,1.4,1.9,2,1.9c0.8-0.1,1.7-1.1,2.2-1.9
	c3.2-6.1,7.4-11.2,14.5-13.2c0.3,0,0.6,0,0.9,0c-0.3,2.5-0.8,4.9-0.9,7.4c-0.2,4.4-1.9,7.5-6.6,8.6c-2,0.5-3.9,1.3-5.7,2.2
	c-0.5,0.2-0.7,1-1,1.6c0.6,0.3,1.1,0.7,1.7,0.7c0.8,0,1.6-0.3,2.4-0.5c3.2-0.8,4.3-0.7,5.5,2.4C34.1,30.5,34.2,33.7,34.8,36.7z"/>
</svg>
