<?xml version="1.0" encoding="utf-8"?>
<!-- Generator: Adobe Illustrator 26.3.1, SVG Export Plug-In . SVG Version: 6.00 Build 0)  -->
<svg version="1.1" id="Layer_1" xmlns="http://www.w3.org/2000/svg" xmlns:xlink="http://www.w3.org/1999/xlink" x="0px" y="0px"
	 viewBox="0 0 40 40" style="enable-background:new 0 0 40 40;" xml:space="preserve">
<path fill="#FFFFFF" xmlns="http://www.w3.org/2000/svg" d="M30.1,22.8c-0.1-0.1-0.3-0.2-0.5-0.2h-1.3c-0.2,0-0.3,0.1-0.5,0.2c-0.1,0.1-0.2,0.3-0.2,0.5v6.4c0,0.9-0.3,1.6-0.9,2.3 c-0.6,0.6-1.4,0.9-2.3,0.9H7.8c-0.9,0-1.6-0.3-2.3-0.9c-0.6-0.6-0.9-1.4-0.9-2.3V12.9c0-0.9,0.3-1.6,0.9-2.3C6.1,10,6.9,9.7,7.8,9.7 h14.1c0.2,0,0.3-0.1,0.5-0.2c0.1-0.1,0.2-0.3,0.2-0.5V7.8c0-0.2-0.1-0.3-0.2-0.5c-0.1-0.1-0.3-0.2-0.5-0.2H7.8c-1.6,0-3,0.6-4.1,1.7 S2,11.3,2,12.9v16.7c0,1.6,0.6,3,1.7,4.1c1.1,1.1,2.5,1.7,4.1,1.7h16.7c1.6,0,3-0.6,4.1-1.7c1.1-1.1,1.7-2.5,1.7-4.1v-6.4 C30.3,23,30.2,22.9,30.1,22.8z M37.6,5c-0.3-0.3-0.6-0.4-0.9-0.4H26.4c-0.3,0-0.6,0.1-0.9,0.4s-0.4,0.6-0.4,0.9s0.1,0.6,0.4,0.9 l3.5,3.5L16,23.4c-0.1,0.1-0.2,0.3-0.2,0.5s0.1,0.3,0.2,0.5l2.3,2.3c0.1,0.1,0.3,0.2,0.5,0.2c0.2,0,0.3-0.1,0.5-0.2l13.1-13.1 l3.5,3.5c0.3,0.3,0.6,0.4,0.9,0.4c0.3,0,0.6-0.1,0.9-0.4s0.4-0.6,0.4-0.9V5.9C38,5.5,37.9,5.2,37.6,5z"/>
</svg>
