<?xml version="1.0" encoding="utf-8"?>
<!-- Generator: Adobe Illustrator 26.3.1, SVG Export Plug-In . SVG Version: 6.00 Build 0)  -->
<svg version="1.1" id="Layer_1" xmlns="http://www.w3.org/2000/svg" xmlns:xlink="http://www.w3.org/1999/xlink" x="0px" y="0px"
	 viewBox="0 0 40 40" style="enable-background:new 0 0 40 40;" xml:space="preserve">
<path d="M24.3,40c-1.2-0.5-1.9-1.4-1.8-2.6c0.3-3.2,0.6-6.5,1.2-9.7c0.9-4,2.5-7.8,4.9-11.1c0.5-0.8,1.2-1.5,1.9-2.1
	c1.8-1.5,3.3-1.3,4.4,0.7c0,0.6,0,1.1,0,1.7c-0.5,1.3-0.8,2.8-1.7,3.8c-1.7,2.1-3.8,3.8-5.7,5.8c-0.5,0.5-1.2,1.2-1.3,1.9
	c-0.6,2.7-1,5.3-1.4,8c-0.1,0.5,0,1,0.1,1.4c0.1,0,0.3,0.1,0.4,0.1c0.2-0.5,0.6-0.9,0.6-1.4c0.2-2.3,0.5-4.6,0.6-6.8
	c0.1-1.5,0.9-2.2,2.3-2c1,0.2,1.9,0.3,2.9,0.4s1.3,0.8,0.7,1.6c-0.4,0.4-1,0.7-1.5,0.7c-0.9,0-1.7-0.2-2.6-0.3
	c-0.1,1.7-0.2,3.4-0.4,5.1c-0.3,2-0.8,3.9-2.8,4.9C24.8,40,24.6,40,24.3,40z M27.7,24.1c3.1-1.7,5.6-6.3,4.7-8.7
	C30,17.9,29,21,27.7,24.1z M3,19.8c0.1-4,0.7-7.9,2.6-11.6C8.7,2.5,13.4-0.3,20,0c3.5,0.2,6.5,1.6,7.8,5.1s0.5,6.8-2,9.5
	c-2.2,2.5-5.2,3.5-8.3,3.9c-0.9,0.1-1.3,0.3-1.4,1.3c-0.3,2.4-0.8,4.7-1.3,7.1c-0.9,4-4.3,5.4-7.8,3.1c-2.5-1.7-3.4-4.3-3.8-7.1
	C3,21.8,3.1,20.8,3,19.8z M16.9,15.2c2-0.2,3.6-0.8,4.9-2.1c1.6-1.6,2.1-4.8,1.2-6.7c-1-2.2-2.9-2.7-5.1-2.8
	c-4.5-0.1-7.3,2.5-9.2,6.3c-1.6,3.3-2.2,6.8-2,10.4c0.1,1.9,0.9,3.9,1.4,5.8c0.1,0.4,0.8,0.8,1.2,0.7c0.3,0,0.8-0.7,0.9-1.1
	c0.5-2.3,0.9-4.7,1.4-7c-1.3-0.4-2.9-0.3-2.6-2.2c0.3-2.1,2-1,3.2-1.4c0.4-2.2,0.8-4.5,1.2-6.7c0.3-1.5,1.6-2.2,3.2-1.9
	C18.1,6.8,18,7.9,17.9,9c0,0.5-0.2,1-0.2,1.5C17.4,12.1,17.1,13.6,16.9,15.2z"/>
</svg>
