<?xml version="1.0" encoding="utf-8"?>
<!-- Generator: Adobe Illustrator 28.0.0, SVG Export Plug-In . SVG Version: 6.00 Build 0)  -->
<svg version="1.1" id="Layer_1" xmlns="http://www.w3.org/2000/svg" xmlns:xlink="http://www.w3.org/1999/xlink" x="0px" y="0px"
	 viewBox="0 0 40 40" style="enable-background:new 0 0 40 40;" xml:space="preserve">
<path d="M34.1,36v2.1c0,1.1-0.9,2.1-2.1,2.1h-2.1c-1.1,0-2.1-0.9-2.1-2.1V36H34.1z M12,13.9v13c0,0.6,0.5,1,1,1h13v6.1h-16
	c-2.2,0-4-1.8-4-4v-16H12V13.9z M40,30.1v2.1c0,1.1-0.9,2.1-2.1,2.1H36V28h2.1C39.2,28,40,28.9,40,30.1z M34.1,9.9v16H28V13
	c0-0.6-0.5-1-1-1H14V5.9h16C32.2,5.9,34.1,7.8,34.1,9.9z M4,5.9V12H2c-1.1,0-2.1-0.9-2.1-2.1V8c0-1.1,0.9-2.1,2.1-2.1H4z M12,1.9V4
	H6V1.9C6,0.8,6.9-0.1,8-0.1h2.1C11.1,0,12,0.8,12,1.9z M6,5.9H12V12H6V5.9z M28,28h6.1v6.1H28V28z"/>
</svg>
