<?xml version="1.0" encoding="utf-8"?>
<!-- Generator: Adobe Illustrator 28.0.0, SVG Export Plug-In . SVG Version: 6.00 Build 0)  -->
<svg version="1.1" id="Layer_1" xmlns="http://www.w3.org/2000/svg" xmlns:xlink="http://www.w3.org/1999/xlink" x="0px" y="0px"
	 viewBox="0 0 40 40" style="enable-background:new 0 0 40 40;" xml:space="preserve">
<g>
	<path d="M20.3,16.1c-0.4-0.9-1.4-3.2-2.6-5.4C18.6,12.9,19.8,15.3,20.3,16.1C20.3,16.2,20.3,16.1,20.3,16.1z"/>
	<path d="M34.3,17l-0.1-0.3c-0.3-1.4-0.6-2.9-1.1-4.2c-0.5-1.3-1.8-3.4-4.3-3.4c-0.2,0-0.4,0-0.6,0c-0.8,0.1-1.6,0.4-2.3,0.9
		C24.9,8,23.7,6,23.2,5.3c-1.2-1.6-2.7-2.4-4.3-2.4l0,0c-0.3,0-0.6,0-0.9,0.1c-0.8,0.2-1.5,0.5-2.1,1.1c-0.8-0.5-1.7-0.7-2.6-0.7
		c-0.6,0-1.3,0.1-1.9,0.4c-1.2,0.5-2.1,1.7-2.5,3C8.6,6.9,8.2,7,7.8,7.2C6,8.1,5,10.1,5.3,12.3c-0.6,0.2-1.1,0.6-1.5,1
		c-1.4,1.3-1.6,3.3-0.6,5.8c0.6,1.5,1.5,3.2,2.7,5.4c3.8,6.9,7.8,11.5,14.8,11.5h0c5.6,0,9.7-3,11.6-5.6C36,25.3,35,20.1,34.3,17z
		 M30.2,29c-1.5,2.1-4.9,4.5-9.5,4.5h0c-5.7,0-9-3.7-12.6-10.2c-2.1-3.9-3.8-6.9-2.5-8.2c0.1-0.2,0.3-0.3,0.5-0.4
		c0.2-0.1,0.4-0.1,0.6-0.1c0.9,0,1.9,0.8,2.5,1.3c0.3,0.3,0.5,0.5,0.8,0.9c-0.9-1.5-1.7-3.2-2.1-4.5c-0.3-1.2,0-2.3,1-2.8
		c0.3-0.1,0.6-0.2,0.9-0.2c0.7,0,1.3,0.3,1.7,0.9c0.2,0.3,0.5,0.6,0.7,0.9c-0.4-0.9-0.7-1.8-0.9-2.8c-0.1-0.9,0.5-1.9,1.1-2.2
		C12.7,6,13,5.9,13.3,6c0.3,0,0.6,0,0.9,0.2c0.3,0.1,0.5,0.3,0.7,0.5c0.9,0.9,1.9,2.5,2.8,4.1c-0.4-1.1-0.7-2.2-0.8-3
		c0-0.9,0.5-2,1.5-2.2c0.1,0,0.3,0,0.4,0l0,0c1,0,1.8,0.8,2.3,1.4c1.2,1.6,6.1,11.1,6.1,11.1c-0.4-1.1-0.6-2.2-0.5-3.4
		c0.1-1.5,0.5-2.6,1.9-2.8c0.1,0,0.2,0,0.2,0c1.8,0,2.4,2.9,2.9,5.5C32.3,20.1,33.4,24.6,30.2,29z"/>
	<path d="M12.3,11.1c1.4,3.2,4,6.8,4,6.8S14.2,13.8,12.3,11.1z"/>
	<path d="M10,16.8c0.8,1.4,1.7,2.7,2.7,4C11.2,18.7,10.5,17.6,10,16.8z"/>
	<path d="M20.5,16.5c-0.1,0-0.2,0-0.3-0.1c-0.1,0-0.2-0.1-0.2-0.2c-0.2-0.2-4.4-6.1-3.5-9.5c0-0.1,0.1-0.2,0.1-0.2
		c0.1-0.1,0.1-0.1,0.2-0.2c0.1,0,0.2-0.1,0.2-0.1c0.1,0,0.2,0,0.3,0c0.1,0,0.2,0.1,0.2,0.1c0.1,0.1,0.1,0.1,0.2,0.2
		c0,0.1,0.1,0.2,0.1,0.2c0,0.1,0,0.2,0,0.3c-0.6,2.4,2.2,6.9,3.3,8.4c0.1,0.1,0.1,0.2,0.1,0.3c0,0.1,0,0.2-0.1,0.3
		c-0.1,0.1-0.1,0.2-0.2,0.3C20.7,16.4,20.6,16.5,20.5,16.5z"/>
	<path d="M16.3,18.5c-0.1,0-0.2,0-0.3-0.1c-0.1,0-0.2-0.1-0.2-0.2c-0.2-0.2-4.3-4.8-5-9.5c0-0.1,0-0.2,0-0.3c0-0.1,0.1-0.2,0.1-0.2
		C11,8.2,11,8.2,11.1,8.1c0.1,0,0.2-0.1,0.2-0.1c0.1,0,0.2,0,0.3,0c0.1,0,0.2,0.1,0.2,0.1c0.1,0.1,0.1,0.1,0.2,0.2
		c0,0.1,0.1,0.2,0.1,0.2c0.6,4.4,4.6,8.8,4.7,8.9c0.1,0.1,0.1,0.2,0.2,0.3c0,0.1,0,0.2,0,0.4c-0.1,0.1-0.1,0.2-0.2,0.3
		C16.5,18.5,16.4,18.5,16.3,18.5z"/>
	<path d="M13.3,22.6c-0.2,0-0.3-0.1-0.4-0.2c-0.2-0.2-5.6-5.4-5.6-10.1c0-0.2,0.1-0.3,0.2-0.5c0.1-0.1,0.3-0.2,0.5-0.2
		c0.2,0,0.3,0.1,0.5,0.2c0.1,0.1,0.2,0.3,0.2,0.5c0,4.2,5.1,9.1,5.2,9.2c0.1,0.1,0.2,0.2,0.2,0.3c0,0.1,0,0.3,0,0.4
		c0,0.1-0.1,0.2-0.2,0.3C13.6,22.6,13.4,22.6,13.3,22.6z"/>
	<path d="M23.4,26c-0.2,0-0.3-0.1-0.4-0.2c-0.1-0.1-0.2-0.3-0.2-0.4c-0.5-5,2.5-7.2,3.7-7.9c-0.3-1.2-0.9-3.9,0.5-5.7
		c0.1-0.1,0.1-0.1,0.2-0.2c0.1,0,0.2-0.1,0.2-0.1c0.1,0,0.2,0,0.3,0c0.1,0,0.2,0.1,0.2,0.1c0.1,0.1,0.1,0.1,0.2,0.2
		c0,0.1,0.1,0.2,0.1,0.2c0,0.1,0,0.2,0,0.3c0,0.1-0.1,0.2-0.1,0.2c-1.1,1.4-0.5,4.1-0.1,5c0,0.1,0,0.2,0,0.2c0,0.1,0,0.2-0.1,0.2
		c0,0.1-0.1,0.1-0.2,0.2c-0.1,0.1-0.1,0.1-0.2,0.1c-0.2,0.1-3.9,1.5-3.4,6.8c0,0.2,0,0.3-0.1,0.5C23.8,25.9,23.6,26,23.4,26L23.4,26
		z"/>
	<path d="M6.7,37.1c0,0-0.1,0-0.1,0c-1-0.2-2-0.5-2.9-1.1c-0.9-0.5-1.6-1.2-2.2-2.1c-0.6-0.8-1-1.8-1.3-2.8c-0.2-1-0.3-2-0.1-3
		c0-0.1,0-0.2,0.1-0.2c0-0.1,0.1-0.1,0.2-0.2c0.1-0.1,0.1-0.1,0.2-0.1c0.1,0,0.2,0,0.3,0c0.1,0,0.2,0,0.2,0.1c0.1,0,0.1,0.1,0.2,0.2
		c0,0.1,0.1,0.1,0.1,0.2c0,0.1,0,0.2,0,0.3c-0.1,0.8-0.1,1.7,0.1,2.6c0.2,0.8,0.6,1.6,1.1,2.3C3,33.9,3.7,34.5,4.4,35
		c0.7,0.4,1.5,0.7,2.4,0.9c0.2,0,0.3,0.1,0.4,0.2c0.1,0.1,0.1,0.3,0.1,0.4c0,0.2-0.1,0.3-0.2,0.4C7,37.1,6.9,37.1,6.7,37.1L6.7,37.1
		z"/>
	<path d="M7.1,34.4C7.1,34.4,7.1,34.4,7.1,34.4c-1.4-0.2-2.6-0.9-3.4-2c-0.8-1.1-1.1-2.4-0.9-3.8c0-0.2,0.1-0.3,0.3-0.4
		c0.1-0.1,0.3-0.1,0.5-0.1c0.2,0,0.3,0.1,0.4,0.2c0.1,0.1,0.1,0.3,0.1,0.5c-0.2,1,0.1,2,0.7,2.8c0.6,0.8,1.5,1.4,2.5,1.5
		c0.2,0,0.3,0.1,0.4,0.2c0.1,0.1,0.1,0.3,0.1,0.4c0,0.2-0.1,0.3-0.2,0.4C7.4,34.3,7.3,34.4,7.1,34.4L7.1,34.4z"/>
	<path d="M38.9,13.9c-0.1,0-0.1,0-0.2,0c-0.1,0-0.2-0.1-0.2-0.1c-0.1-0.1-0.1-0.1-0.1-0.2c0-0.1-0.1-0.2-0.1-0.2c0-0.1,0-0.2,0-0.2
		c0.3-0.8,0.4-1.7,0.4-2.5c0-0.9-0.3-1.7-0.6-2.5c-0.4-0.8-0.9-1.5-1.5-2.1c-0.6-0.6-1.4-1-2.2-1.3c-0.1,0-0.2-0.1-0.2-0.1
		C34.1,4.5,34,4.5,34,4.4c0-0.1-0.1-0.2-0.1-0.3c0-0.1,0-0.2,0-0.3c0-0.1,0.1-0.2,0.1-0.2c0.1-0.1,0.1-0.1,0.2-0.1
		c0.1,0,0.2,0,0.3,0c0.1,0,0.2,0,0.3,0.1c2,0.7,3.5,2.1,4.4,4c0.9,1.9,1,4,0.3,6c0,0.1-0.1,0.2-0.2,0.3
		C39.2,13.9,39.1,13.9,38.9,13.9z"/>
	<path d="M36.3,13c-0.1,0-0.1,0-0.2,0c-0.1,0-0.2-0.1-0.2-0.1c-0.1-0.1-0.1-0.1-0.2-0.2c0-0.1-0.1-0.2-0.1-0.2c0-0.1,0-0.2,0-0.2
		c0.2-0.5,0.2-1,0.2-1.5c0-0.5-0.1-1-0.4-1.4c-0.2-0.4-0.5-0.8-0.9-1.2c-0.4-0.3-0.8-0.6-1.3-0.8c-0.2-0.1-0.3-0.2-0.4-0.3
		c-0.1-0.2-0.1-0.3,0-0.5c0.1-0.2,0.2-0.3,0.3-0.4c0.2-0.1,0.3-0.1,0.5,0c0.6,0.2,1.2,0.6,1.7,1c0.5,0.4,0.9,1,1.2,1.6
		c0.3,0.6,0.4,1.2,0.5,1.9c0,0.7-0.1,1.3-0.3,2c0,0.1-0.1,0.2-0.2,0.3C36.6,13,36.5,13,36.3,13z"/>
</g>
</svg>
