<?xml version="1.0" encoding="utf-8"?>
<!-- Generator: Adobe Illustrator 26.3.1, SVG Export Plug-In . SVG Version: 6.00 Build 0)  -->
<svg version="1.1" id="Layer_1" xmlns="http://www.w3.org/2000/svg" xmlns:xlink="http://www.w3.org/1999/xlink" x="0px" y="0px"
	 viewBox="0 0 40 40" style="enable-background:new 0 0 40 40;" xml:space="preserve">
<path d="M37.6,27.1c0,0-0.3,2.4-1.4,3.5c-1.4,1.4-2.9,1.4-3.6,1.5c-5,0.4-12.4,0.4-12.4,0.4S11,32.4,8.1,32.1
	C7.3,32,5.5,32,4.2,30.6c-1.1-1.1-1.4-3.5-1.4-3.5s-0.4-2.9-0.4-5.7v-2.7c0-2.9,0.4-5.7,0.4-5.7s0.3-2.4,1.4-3.5C5.5,8,7,8,7.7,7.9
	c5-0.4,12.4-0.4,12.4-0.4l0,0c0,0,7.5,0,12.4,0.4C33.3,8,34.8,8,36.2,9.4c1.1,1.1,1.4,3.5,1.4,3.5s0.4,2.9,0.4,5.7v2.7
	C37.9,24.2,37.6,27.1,37.6,27.1z M16.5,14.6v9.9l9.6-5L16.5,14.6z"/>
</svg>
