<?xml version="1.0" encoding="utf-8"?>
<!-- Generator: Adobe Illustrator 28.0.0, SVG Export Plug-In . SVG Version: 6.00 Build 0)  -->
<svg version="1.1" id="Layer_1" xmlns="http://www.w3.org/2000/svg" xmlns:xlink="http://www.w3.org/1999/xlink" x="0px" y="0px"
	 viewBox="0 0 40 40" style="enable-background:new 0 0 40 40;" xml:space="preserve">
<path d="M35.2,20.1c-1.3-2.5-3.9-4-6.6-4.1l3.1-1.6c3.8-2,5.2-6.6,3.2-10.3c-2-3.7-6.7-5.2-10.4-3.2L8,9.6c-3.8,2-5.2,6.6-3.2,10.3
	c1.3,2.5,3.9,4,6.6,4.1l-3.1,1.6C4.5,27.6,3,32.2,5,35.9c2,3.7,6.7,5.2,10.4,3.2L32,30.4C35.8,28.5,37.2,23.8,35.2,20.1z M15.6,26.2
	V13.8l10,6.2L15.6,26.2z"/>
</svg>
